{
  "accessors": [
    {
      "bufferView": 2,
      "componentType": 5126,
      "count": 9924,
      "max": [
        9.750423431396484,
        -1.0423489809036255,
        2.784965991973877
      ],
      "min": [
        -16.160812377929688,
        -10.558090209960938,
        2.104212999343872
      ],
      "type": "VEC3"
    },
    {
      "bufferView": 2,
      "byteOffset": 119088,
      "componentType": 5126,
      "count": 9924,
      "max": [
        0.994930624961853,
        0.9949303865432739,
        1.0
      ],
      "min": [
        -0.9949305057525635,
        -0.9949303865432739,
        -1.0
      ],
      "type": "VEC3"
    },
    {
      "bufferView": 1,
      "componentType": 5126,
      "count": 9924,
      "max": [
        0.9062290191650391,
        0.9980080127716064
      ],
      "min": [
        0.0018090000376105309,
        0.0019920000340789557
      ],
      "type": "VEC2"
    },
    {
      "bufferView": 0,
      "componentType": 5125,
      "count": 37764,
      "type": "SCALAR"
    },
    {
      "bufferView": 2,
      "byteOffset": 238176,
      "componentType": 5126,
      "count": 6450,
      "max": [
        10.174622535705566,
        1.0683720111846924,
        2.784965991973877
      ],
      "min": [
        -16.685230255126953,
        -10.98128604888916,
        0.9904149770736694
      ],
      "type": "VEC3"
    },
    {
      "bufferView": 2,
      "byteOffset": 315576,
      "componentType": 5126,
      "count": 6450,
      "max": [
        1.0,
        0.9999983310699463,
        1.0
      ],
      "min": [
        -1.0,
        -1.0,
        -1.0
      ],
      "type": "VEC3"
    },
    {
      "bufferView": 1,
      "byteOffset": 79392,
      "componentType": 5126,
      "count": 6450,
      "max": [
        0.9053159952163696,
        0.9848840236663818
      ],
      "min": [
        0.0018090000376105309,
        0.014135999605059624
      ],
      "type": "VEC2"
    },
    {
      "bufferView": 0,
      "byteOffset": 151056,
      "componentType": 5125,
      "count": 25704,
      "type": "SCALAR"
    },
    {
      "bufferView": 2,
      "byteOffset": 392976,
      "componentType": 5126,
      "count": 1832,
      "max": [
        18.107118606567383,
        0.5389429926872253,
        2.9118499755859375
      ],
      "min": [
        11.883179664611816,
        -11.201996803283691,
        1.3521219491958618
      ],
      "type": "VEC3"
    },
    {
      "bufferView": 2,
      "byteOffset": 414960,
      "componentType": 5126,
      "count": 1832,
      "max": [
        1.0,
        1.0,
        1.0
      ],
      "min": [
        -1.0,
        -0.9993280172348022,
        -0.9969990253448486
      ],
      "type": "VEC3"
    },
    {
      "bufferView": 1,
      "byteOffset": 130992,
      "componentType": 5126,
      "count": 1832,
      "max": [
        0.9980080127716064,
        0.9039760231971741
      ],
      "min": [
        0.0019920000340789557,
        0.001803999999538064
      ],
      "type": "VEC2"
    },
    {
      "bufferView": 0,
      "byteOffset": 253872,
      "componentType": 5125,
      "count": 7752,
      "type": "SCALAR"
    }
  ],
  "asset": {
    "extras": {
      "author": "danmars (https://sketchfab.com/danmars)",
      "license": "CC-BY-NC-4.0 (http://creativecommons.org/licenses/by-nc/4.0/)",
      "source": "https://sketchfab.com/3d-models/keyboard-and-mouse-f6325d554adb4e54be6967c59a538561",
      "title": "Keyboard and mouse"
    },
    "generator": "Sketchfab-15.31.0",
    "version": "2.0"
  },
  "bufferViews": [
    {
      "buffer": 0,
      "byteLength": 284880,
      "name": "floatBufferViews",
      "target": 34963
    },
    {
      "buffer": 0,
      "byteLength": 145648,
      "byteOffset": 284880,
      "byteStride": 8,
      "name": "floatBufferViews",
      "target": 34962
    },
    {
      "buffer": 0,
      "byteLength": 436944,
      "byteOffset": 430528,
      "byteStride": 12,
      "name": "floatBufferViews",
      "target": 34962
    }
  ],
  "buffers": [
    {
      "byteLength": 867472,
      "uri": "scene.bin"
    }
  ],
  "images": [
    {
      "uri": "textures/lambert2SG_baseColor.png"
    },
    {
      "uri": "textures/lambert2SG_metallicRoughness.png"
    },
    {
      "uri": "textures/lambert2SG_emissive.png"
    },
    {
      "uri": "textures/lambert3SG_baseColor.png"
    },
    {
      "uri": "textures/lambert3SG_metallicRoughness.png"
    }
  ],
  "materials": [
    {
      "doubleSided": true,
      "emissiveFactor": [
        0.7864545737805206,
        0.7864545737805206,
        0.7864545737805206
      ],
      "emissiveTexture": {
        "index": 2
      },
      "name": "lambert2SG",
      "pbrMetallicRoughness": {
        "baseColorFactor": [
          0.6009242935464687,
          0.6009242935464687,
          0.6009242935464687,
          1.0
        ],
        "baseColorTexture": {
          "index": 0
        },
        "metallicFactor": 0.0,
        "metallicRoughnessTexture": {
          "index": 1
        }
      }
    },
    {
      "doubleSided": true,
      "name": "lambert3SG",
      "pbrMetallicRoughness": {
        "baseColorTexture": {
          "index": 3
        },
        "metallicFactor": 0.0,
        "metallicRoughnessTexture": {
          "index": 4
        }
      }
    }
  ],
  "meshes": [
    {
      "name": "Object_0",
      "primitives": [
        {
          "attributes": {
            "NORMAL": 1,
            "POSITION": 0,
            "TEXCOORD_0": 2
          },
          "indices": 3,
          "material": 0,
          "mode": 4
        }
      ]
    },
    {
      "name": "Object_1",
      "primitives": [
        {
          "attributes": {
            "NORMAL": 5,
            "POSITION": 4,
            "TEXCOORD_0": 6
          },
          "indices": 7,
          "material": 0,
          "mode": 4
        }
      ]
    },
    {
      "name": "Object_2",
      "primitives": [
        {
          "attributes": {
            "NORMAL": 9,
            "POSITION": 8,
            "TEXCOORD_0": 10
          },
          "indices": 11,
          "material": 1,
          "mode": 4
        }
      ]
    }
  ],
  "nodes": [
    {
      "children": [
        1
      ],
      "matrix": [
        1.0,
        0.0,
        0.0,
        0.0,
        0.0,
        2.220446049250313e-16,
        -1.0,
        0.0,
        0.0,
        1.0,
        2.220446049250313e-16,
        0.0,
        0.0,
        0.0,
        0.0,
        1.0
      ],
      "name": "Sketchfab_model"
    },
    {
      "children": [
        2,
        3,
        4
      ],
      "name": "KEYBOARD_EXP.obj.cleaner.materialmerger.gles"
    },
    {
      "mesh": 0,
      "name": "Object_2"
    },
    {
      "mesh": 1,
      "name": "Object_3"
    },
    {
      "mesh": 2,
      "name": "Object_4"
    }
  ],
  "samplers": [
    {
      "magFilter": 9729,
      "minFilter": 9987,
      "wrapS": 10497,
      "wrapT": 10497
    }
  ],
  "scene": 0,
  "scenes": [
    {
      "name": "Sketchfab_Scene",
      "nodes": [
        0
      ]
    }
  ],
  "textures": [
    {
      "sampler": 0,
      "source": 0
    },
    {
      "sampler": 0,
      "source": 1
    },
    {
      "sampler": 0,
      "source": 2
    },
    {
      "sampler": 0,
      "source": 3
    },
    {
      "sampler": 0,
      "source": 4
    }
  ]
}
