{
  "accessors": [
    {
      "bufferView": 2,
      "componentType": 5126,
      "count": 33175,
      "max": [
        0.5399893522262573,
        0.5897427797317505,
        0.5029423236846924
      ],
      "min": [
        -0.6308983564376831,
        -0.39603984355926514,
        -0.4519771337509155
      ],
      "type": "VEC3"
    },
    {
      "bufferView": 2,
      "byteOffset": 398100,
      "componentType": 5126,
      "count": 33175,
      "max": [
        0.9999997615814209,
        0.9999480247497559,
        0.9999939203262329
      ],
      "min": [
        -0.9999971389770508,
        -0.9999535083770752,
        -0.9999940395355225
      ],
      "type": "VEC3"
    },
    {
      "bufferView": 3,
      "componentType": 5126,
      "count": 33175,
      "max": [
        0.9999997615814209,
        0.9999861121177673,
        1.0,
        1.0
      ],
      "min": [
        -0.9999964833259583,
        -0.9999961853027344,
        -1.0,
        -1.0
      ],
      "type": "VEC4"
    },
    {
      "bufferView": 1,
      "componentType": 5126,
      "count": 33175,
      "max": [
        0.9998149871826172,
        0.9959330558776855
      ],
      "min": [
        8.0392426752951e-05,
        4.7270510549424216e-05
      ],
      "type": "VEC2"
    },
    {
      "bufferView": 1,
      "byteOffset": 265400,
      "componentType": 5126,
      "count": 33175,
      "max": [
        0.9998149871826172,
        0.9959330558776855
      ],
      "min": [
        8.0392426752951e-05,
        4.7270510549424216e-05
      ],
      "type": "VEC2"
    },
    {
      "bufferView": 1,
      "byteOffset": 530800,
      "componentType": 5126,
      "count": 33175,
      "max": [
        0.9998149871826172,
        0.9959330558776855
      ],
      "min": [
        8.0392426752951e-05,
        4.7270510549424216e-05
      ],
      "type": "VEC2"
    },
    {
      "bufferView": 1,
      "byteOffset": 796200,
      "componentType": 5126,
      "count": 33175,
      "max": [
        0.9998149871826172,
        0.9959330558776855
      ],
      "min": [
        8.0392426752951e-05,
        4.7270510549424216e-05
      ],
      "type": "VEC2"
    },
    {
      "bufferView": 0,
      "componentType": 5125,
      "count": 165231,
      "type": "SCALAR"
    }
  ],
  "asset": {
    "extras": {
      "author": "golinad (https://sketchfab.com/golinad)",
      "license": "CC-BY-4.0 (http://creativecommons.org/licenses/by/4.0/)",
      "source": "https://sketchfab.com/3d-models/puzzle-ball-bc0a6a5e5b4d407fb11c5a6ddd06af12",
      "title": "Puzzle Ball"
    },
    "generator": "Sketchfab-14.73.0",
    "version": "2.0"
  },
  "bufferViews": [
    {
      "buffer": 0,
      "byteLength": 660924,
      "name": "floatBufferViews",
      "target": 34963
    },
    {
      "buffer": 0,
      "byteLength": 1061600,
      "byteOffset": 660924,
      "byteStride": 8,
      "name": "floatBufferViews",
      "target": 34962
    },
    {
      "buffer": 0,
      "byteLength": 796200,
      "byteOffset": 1722524,
      "byteStride": 12,
      "name": "floatBufferViews",
      "target": 34962
    },
    {
      "buffer": 0,
      "byteLength": 530800,
      "byteOffset": 2518724,
      "byteStride": 16,
      "name": "floatBufferViews",
      "target": 34962
    }
  ],
  "buffers": [
    {
      "byteLength": 3049524,
      "uri": "scene.bin"
    }
  ],
  "extensionsUsed": [
    "KHR_materials_specular"
  ],
  "images": [
    {
      "uri": "textures/material_0_baseColor.png"
    },
    {
      "uri": "textures/material_0_metallicRoughness.png"
    },
    {
      "uri": "textures/material_0_normal.png"
    }
  ],
  "materials": [
    {
      "extensions": {
        "KHR_materials_specular": {
          "specularColorFactor": [
            1.0,
            1.0,
            1.0
          ],
          "specularFactor": 1.0
        }
      },
      "name": "material_0",
      "normalTexture": {
        "index": 2
      },
      "pbrMetallicRoughness": {
        "baseColorTexture": {
          "index": 0
        },
        "metallicRoughnessTexture": {
          "index": 1
        }
      }
    }
  ],
  "meshes": [
    {
      "name": "Object_0",
      "primitives": [
        {
          "attributes": {
            "NORMAL": 1,
            "POSITION": 0,
            "TANGENT": 2,
            "TEXCOORD_0": 3,
            "TEXCOORD_1": 4,
            "TEXCOORD_2": 5,
            "TEXCOORD_3": 6
          },
          "indices": 7,
          "material": 0,
          "mode": 4
        }
      ]
    }
  ],
  "nodes": [
    {
      "children": [
        1
      ],
      "matrix": [
        1.0,
        0.0,
        0.0,
        0.0,
        0.0,
        2.220446049250313e-16,
        -1.0,
        0.0,
        0.0,
        1.0,
        2.220446049250313e-16,
        0.0,
        0.0,
        0.0,
        0.0,
        1.0
      ],
      "name": "Sketchfab_model"
    },
    {
      "children": [
        2
      ],
      "name": "root"
    },
    {
      "children": [
        3
      ],
      "matrix": [
        1.0,
        0.0,
        0.0,
        0.0,
        0.0,
        2.220446049250313e-16,
        1.0,
        0.0,
        0.0,
        -1.0,
        2.220446049250313e-16,
        0.0,
        0.0,
        0.0,
        0.0,
        1.0
      ],
      "name": "GLTF_SceneRootNode"
    },
    {
      "children": [
        4
      ],
      "matrix": [
        1.0,
        0.0,
        0.0,
        0.0,
        0.0,
        1.0,
        0.0,
        0.0,
        0.0,
        0.0,
        1.0,
        0.0,
        0.0373782217502594,
        -0.07925046980381012,
        -0.018950626254081726,
        1.0
      ],
      "name": "Sphere ext 1_0"
    },
    {
      "mesh": 0,
      "name": "Object_4"
    }
  ],
  "samplers": [
    {
      "magFilter": 9729,
      "minFilter": 9987,
      "wrapS": 10497,
      "wrapT": 10497
    }
  ],
  "scene": 0,
  "scenes": [
    {
      "name": "Sketchfab_Scene",
      "nodes": [
        0
      ]
    }
  ],
  "textures": [
    {
      "sampler": 0,
      "source": 0
    },
    {
      "sampler": 0,
      "source": 1
    },
    {
      "sampler": 0,
      "source": 2
    }
  ]
}
